# xmcd CD database file
#
# Track frame offsets:
#	183
#	12408
#	32083
#	46483
#	66583
#	81858
#	94383
#	109458
#	121983
#	134833
#
# Disc length: 1962 seconds
#
# Revision: 1
# Processed by: cddbd v1.5.2PL0 Copyright (c) Steve Scherf et al.
# Submitted via: CDex 1.70beta1
#
DISCID=9707a80a
DTITLE=Johnny Cash - Johnny Cash Is Coming To Town
DYEAR=1987
DGENRE=Country
TTITLE0=The big light
TTITLE1=The ballad of Barbara
TTITLE2=I'd rather have you
TTITLE3=Let him roll
TTITLE4=The night Hank Williams came to town
TTITLE5=Sixteen tons
TTITLE6=Letters from home
TTITLE7=W. Lee O'Daniel (and the light crust dough boys)
TTITLE8=Heavy metal  (don't mean rock and roll to me)
TTITLE9=My ship will sail
EXTD=(c)1987 Polygram Records - Mercury Germany\nProduced by Jack Clement\nupc 042283203129 YEAR: 1987
EXTT0=
EXTT1=
EXTT2=
EXTT3=
EXTT4=
EXTT5=
EXTT6=
EXTT7=
EXTT8=
EXTT9=
PLAYORDER=
